<?xml version="1.0" encoding="utf-8"?>
<!-- Generator: Adobe Illustrator 19.2.1, SVG Export Plug-In . SVG Version: 6.00 Build 0)  -->
<svg version="1.1" id="Layer_1" xmlns="http://www.w3.org/2000/svg" xmlns:xlink="http://www.w3.org/1999/xlink" x="0px" y="0px"
	 viewBox="0 0 100 100" style="enable-background:new 0 0 100 100;" xml:space="preserve">
<style type="text/css">
	.st0{opacity:0.2;}
	.st1{fill:#3C8DBC;}
	.st2{fill:url(#SVGID_1_);}
</style>
<g id="Layer_1_1_" class="st0">
	<g id="Layer_2">
		<circle class="st1" cx="50" cy="50" r="41"/>
	</g>
</g>
<g id="Layer_4">
	<linearGradient id="SVGID_1_" gradientUnits="userSpaceOnUse" x1="32.7726" y1="22.4719" x2="58.7442" y2="78.1682">
		<stop  offset="0.1" style="stop-color:#3C8DBC"/>
		<stop  offset="0.9" style="stop-color:#00264B"/>
	</linearGradient>
	<path class="st2" d="M28.7,43.1c0,0-2.7-2.6,0.5-5.9c3.1-3.1,45.8-34.5,45.8-34.5s2.3-1.1,0.8,1.9S57.1,29.1,57.1,29.1
		s-3.7,5.7,2,8.9c5.7,3.1,14.5,7.6,14.5,7.6s7.2,2.9,1.4,7.5S17.2,97.4,17.2,97.4s-3,2-1.6-0.3s28.8-35.4,28.8-35.4S52,55,44,51
		S28.7,43.1,28.7,43.1z"/>
</g>
</svg>
