<?xml version="1.0" encoding="utf-8"?>
<!-- Generator: Adobe Illustrator 19.2.1, SVG Export Plug-In . SVG Version: 6.00 Build 0)  -->
<svg version="1.1" xmlns="http://www.w3.org/2000/svg" xmlns:xlink="http://www.w3.org/1999/xlink" x="0px" y="0px"
	 viewBox="0 0 100 100" style="enable-background:new 0 0 100 100;" xml:space="preserve">
<style type="text/css">
	.st0{fill:url(#SVGID_1_);}
	.st1{fill:#FFFFFF;}
</style>
<g id="Layer_2">
	<linearGradient id="SVGID_1_" gradientUnits="userSpaceOnUse" x1="28.8646" y1="95.3279" x2="71.1372" y2="4.6739">
		<stop  offset="0" style="stop-color:#10274A"/>
		<stop  offset="0.76" style="stop-color:#3C8DBC"/>
		<stop  offset="1" style="stop-color:#62CDF6"/>
	</linearGradient>
	<circle class="st0" cx="50" cy="50" r="50"/>
</g>
<g id="Layer_1">
	<title>logo</title>
	<path class="st1" d="M40.2,79.1v2.2c0.9,0,2.8,0,4.6,0c5,0,10-0.5,14.9-1.2v-2.3c-4.9,0.8-9.9,1.2-14.9,1.3
		C42.9,79.1,41.2,79.1,40.2,79.1z M40.3,83.4c0.4,0.6,1.8,2.8,3.7,2.8h0.1c0.1,0.1,0.1,0.2,0.2,0.3c1.5,1,1.4,2,2,2.4
		c0.6,0.4,3.6,0.4,3.6,0.4s3,0,3.6-0.4c0.6-0.4,0.6-1.4,2-2.4c0.1-0.1,0.2-0.2,0.2-0.3h0.1c2.3,0,3.8-3,3.8-3v-1.1
		c-4.9,0.8-9.9,1.2-14.8,1.3C43,83.5,41.3,83.5,40.3,83.4z M40.2,74.8V77c1,0,2.7,0,4.5,0c5,0,10-0.5,14.9-1.2v-2.3
		c-5,0.8-10,1.2-15,1.3C42.9,74.8,41.2,74.8,40.2,74.8L40.2,74.8z M73.6,33.5C73.6,20.9,63,10.7,50,10.7S26.4,20.9,26.4,33.5
		c0,4.1,1.1,8,3.2,11.5l0,0l0.2,0.3c0.3,0.5,0.7,1,1.1,1.6c2.3,3.5,6.7,10.9,6.2,16.4c0,2.2,1.2,4.2,3.1,5.2v4.2c1.3,0,2.2,0,4.5,0
		c5,0,10.1-0.5,15.1-1.3v-3c1.9-1,3.1-3,3.1-5.1c-0.6-5.4,3.8-12.8,6.2-16.3c0.4-0.5,0.8-1.1,1.2-1.7l0.2-0.3l0,0
		C72.5,41.5,73.6,37.5,73.6,33.5z"/>
</g>
</svg>
